<svg width="249" height="102" viewBox="0 0 249 102" fill="none" xmlns="http://www.w3.org/2000/svg">
<g filter="url(#filter0_d_1_114)">
<rect x="11" y="9" width="213" height="66" rx="16" fill="white"/>
</g>
<circle cx="44" cy="42" r="20" fill="#191046"/>
<g clip-path="url(#clip0_1_114)">
<path d="M52.3333 41.2333V42C52.3323 43.797 51.7504 45.5455 50.6744 46.9848C49.5985 48.4241 48.0861 49.477 46.3628 49.9866C44.6395 50.4961 42.7977 50.4349 41.112 49.8121C39.4264 49.1894 37.9872 48.0384 37.0091 46.5309C36.031 45.0233 35.5665 43.24 35.6847 41.4469C35.803 39.6538 36.4977 37.9469 37.6652 36.5809C38.8328 35.2148 40.4106 34.2628 42.1635 33.8668C43.9163 33.4707 45.7502 33.6519 47.3917 34.3833" stroke="white" stroke-width="2" stroke-linecap="round" stroke-linejoin="round"/>
<path d="M52.3333 35.3334L44 43.675L41.5 41.175" stroke="white" stroke-width="2" stroke-linecap="round" stroke-linejoin="round"/>
</g>
<path d="M82.992 31.176C83.6747 31.3147 84.224 31.64 84.64 32.152C85.0667 32.664 85.28 33.2613 85.28 33.944C85.28 34.8827 84.9653 35.6293 84.336 36.184C83.7067 36.728 82.7947 37 81.6 37H77.104V25.704H81.52C82.6507 25.704 83.5147 25.96 84.112 26.472C84.72 26.9733 85.024 27.6667 85.024 28.552C85.024 29.2667 84.8373 29.848 84.464 30.296C84.0907 30.7333 83.6 31.0267 82.992 31.176ZM78.928 30.568H81.184C81.824 30.568 82.3093 30.4187 82.64 30.12C82.9813 29.8213 83.152 29.4053 83.152 28.872C83.152 28.3493 82.9813 27.9387 82.64 27.64C82.3093 27.3413 81.8027 27.192 81.12 27.192H78.928V30.568ZM81.232 35.496C81.9253 35.496 82.4587 35.3413 82.832 35.032C83.216 34.712 83.408 34.2693 83.408 33.704C83.408 33.1387 83.216 32.696 82.832 32.376C82.448 32.056 81.9093 31.896 81.216 31.896H78.928V35.496H81.232ZM95.1226 28.184V37H93.2826V35.08C93.0586 35.7307 92.6693 36.2373 92.1146 36.6C91.56 36.952 90.9146 37.128 90.1786 37.128C89.1546 37.128 88.3333 36.7973 87.7146 36.136C87.096 35.4747 86.7866 34.5307 86.7866 33.304V28.184H88.6106V33.112C88.6106 33.912 88.8133 34.5307 89.2186 34.968C89.624 35.3947 90.1786 35.608 90.8826 35.608C91.608 35.608 92.1893 35.3733 92.6266 34.904C93.064 34.4347 93.2826 33.752 93.2826 32.856V28.184H95.1226ZM99.1311 25.16V37H97.3071V25.16H99.1311ZM106.33 37L103.162 33.08V37H101.338V25.16H103.162V31.944L106.298 28.184H108.49L104.65 32.568L108.586 37H106.33ZM115.35 27.176V30.6H119.51V32.008H115.35V35.512H119.99V37H113.526V25.704H119.99V27.176H115.35ZM126.976 37L124.816 33.88L122.928 37H120.896L123.808 32.424L120.864 28.184H122.928L125.04 31.224L126.912 28.184H128.928L126.016 32.632L129.04 37H126.976ZM135.363 28.072C136.131 28.072 136.814 28.2533 137.411 28.616C138.019 28.9787 138.494 29.5013 138.835 30.184C139.176 30.8667 139.347 31.6667 139.347 32.584C139.347 33.512 139.176 34.3173 138.835 35C138.494 35.6827 138.019 36.2053 137.411 36.568C136.814 36.9307 136.131 37.112 135.363 37.112C134.563 37.112 133.88 36.9147 133.315 36.52C132.75 36.1253 132.355 35.6027 132.131 34.952V41.192H130.307V28.184H132.131V30.232C132.355 29.5813 132.75 29.0587 133.315 28.664C133.88 28.2693 134.563 28.072 135.363 28.072ZM134.803 29.672C134.291 29.672 133.832 29.7947 133.427 30.04C133.022 30.2747 132.702 30.616 132.467 31.064C132.232 31.5013 132.115 32.008 132.115 32.584C132.115 33.1707 132.232 33.6827 132.467 34.12C132.702 34.5573 133.022 34.8987 133.427 35.144C133.832 35.3787 134.291 35.496 134.803 35.496C135.614 35.496 136.264 35.24 136.755 34.728C137.246 34.2053 137.491 33.4907 137.491 32.584C137.491 31.688 137.246 30.9787 136.755 30.456C136.264 29.9333 135.614 29.672 134.803 29.672ZM145.136 28.072C145.989 28.072 146.757 28.2533 147.44 28.616C148.123 28.9787 148.656 29.5013 149.04 30.184C149.424 30.8667 149.616 31.6667 149.616 32.584C149.616 33.512 149.424 34.3173 149.04 35C148.656 35.6827 148.123 36.2053 147.44 36.568C146.757 36.9307 145.989 37.112 145.136 37.112C144.283 37.112 143.515 36.9307 142.832 36.568C142.16 36.2053 141.627 35.6827 141.232 35C140.848 34.3067 140.656 33.5013 140.656 32.584C140.656 31.6667 140.848 30.8667 141.232 30.184C141.627 29.5013 142.16 28.9787 142.832 28.616C143.515 28.2533 144.283 28.072 145.136 28.072ZM145.136 29.656C144.667 29.656 144.235 29.7627 143.84 29.976C143.445 30.1893 143.125 30.52 142.88 30.968C142.645 31.4053 142.528 31.944 142.528 32.584C142.528 33.2347 142.645 33.7787 142.88 34.216C143.125 34.6533 143.445 34.9787 143.84 35.192C144.235 35.4053 144.667 35.512 145.136 35.512C145.605 35.512 146.037 35.4053 146.432 35.192C146.827 34.9787 147.141 34.6533 147.376 34.216C147.621 33.7787 147.744 33.2347 147.744 32.584C147.744 31.944 147.621 31.4053 147.376 30.968C147.141 30.52 146.827 30.1893 146.432 29.976C146.037 29.7627 145.605 29.656 145.136 29.656ZM153.194 29.912C153.492 29.336 153.919 28.8827 154.474 28.552C155.028 28.2107 155.668 28.04 156.394 28.04V30.024H155.85C155.05 30.024 154.404 30.2213 153.914 30.616C153.434 31 153.194 31.64 153.194 32.536V37H151.37V28.184H153.194V29.912ZM162.192 35.416V37H161.072C160.134 37 159.419 36.776 158.928 36.328C158.448 35.8693 158.208 35.112 158.208 34.056V29.736H156.944V28.184H158.208V25.992H160.048V28.184H162.176V29.736H160.048V34.088C160.048 34.5893 160.139 34.936 160.32 35.128C160.512 35.32 160.843 35.416 161.312 35.416H162.192Z" fill="#070F18"/>
<path d="M88.866 50.13L86.318 60H85.142L82.678 51.544L80.2 60H79.024L76.476 50.13H77.568L79.626 58.782L82.118 50.13H83.224L85.716 58.796L87.788 50.13H88.866ZM93.8658 52.258C94.5938 52.258 95.2424 52.4167 95.8118 52.734C96.3904 53.042 96.8431 53.4947 97.1698 54.092C97.4964 54.68 97.6598 55.3753 97.6598 56.178C97.6598 56.9807 97.4964 57.676 97.1698 58.264C96.8431 58.852 96.3904 59.3047 95.8118 59.622C95.2424 59.9393 94.5938 60.098 93.8658 60.098C93.1378 60.098 92.4844 59.9393 91.9058 59.622C91.3271 59.3047 90.8698 58.852 90.5338 58.264C90.2071 57.6667 90.0438 56.9713 90.0438 56.178C90.0438 55.3753 90.2071 54.68 90.5338 54.092C90.8698 53.4947 91.3271 53.042 91.9058 52.734C92.4844 52.4167 93.1378 52.258 93.8658 52.258ZM93.8658 53.112C93.3618 53.112 92.8951 53.224 92.4658 53.448C92.0364 53.672 91.6911 54.0173 91.4298 54.484C91.1684 54.9413 91.0378 55.506 91.0378 56.178C91.0378 56.85 91.1684 57.4147 91.4298 57.872C91.6911 58.3293 92.0364 58.67 92.4658 58.894C92.8951 59.118 93.3618 59.23 93.8658 59.23C94.3604 59.23 94.8178 59.118 95.2378 58.894C95.6671 58.67 96.0124 58.3293 96.2738 57.872C96.5351 57.4147 96.6658 56.85 96.6658 56.178C96.6658 55.506 96.5351 54.9413 96.2738 54.484C96.0124 54.0173 95.6671 53.672 95.2378 53.448C94.8178 53.224 94.3604 53.112 93.8658 53.112ZM100.412 53.938C100.636 53.3873 100.995 52.9627 101.49 52.664C101.984 52.3653 102.586 52.216 103.296 52.216V53.28H102.974C102.236 53.28 101.625 53.4807 101.14 53.882C100.654 54.274 100.412 54.918 100.412 55.814V60H99.4175V52.356H100.412V53.938ZM108.687 60L105.593 56.5V60H104.599V49.64H105.593V55.716L108.631 52.356H109.849L106.335 56.136L109.947 60H108.687ZM117.964 50.326C117.254 50.3167 116.755 50.4473 116.466 50.718C116.186 50.9793 116.046 51.4227 116.046 52.048V52.356H117.964V53.224H116.046V60H115.066V53.224H113.932V52.356H115.066V51.978C115.066 51.1193 115.299 50.4753 115.766 50.046C116.232 49.6167 116.965 49.4207 117.964 49.458V50.326ZM122.653 52.258C123.428 52.258 124.086 52.4587 124.627 52.86C125.178 53.2613 125.556 53.7933 125.761 54.456V52.356H126.727V60H125.761V57.9C125.556 58.5627 125.178 59.0947 124.627 59.496C124.086 59.8973 123.428 60.098 122.653 60.098C121.962 60.098 121.342 59.9393 120.791 59.622C120.25 59.3047 119.825 58.852 119.517 58.264C119.218 57.6667 119.069 56.9713 119.069 56.178C119.069 55.3753 119.218 54.68 119.517 54.092C119.825 53.4947 120.25 53.042 120.791 52.734C121.332 52.4167 121.953 52.258 122.653 52.258ZM122.905 53.126C122.046 53.126 121.356 53.4013 120.833 53.952C120.32 54.4933 120.063 55.2353 120.063 56.178C120.063 57.1207 120.32 57.8673 120.833 58.418C121.356 58.9593 122.046 59.23 122.905 59.23C123.446 59.23 123.932 59.104 124.361 58.852C124.8 58.6 125.14 58.2453 125.383 57.788C125.635 57.3213 125.761 56.7847 125.761 56.178C125.761 55.5713 125.635 55.0393 125.383 54.582C125.14 54.1153 124.8 53.756 124.361 53.504C123.932 53.252 123.446 53.126 122.905 53.126ZM131.163 52.258C131.994 52.258 132.661 52.4773 133.165 52.916C133.669 53.3547 133.977 53.9473 134.089 54.694H133.151C133.095 54.1993 132.89 53.7933 132.535 53.476C132.19 53.1493 131.723 52.986 131.135 52.986C130.631 52.986 130.234 53.112 129.945 53.364C129.665 53.6067 129.525 53.9333 129.525 54.344C129.525 54.652 129.614 54.8993 129.791 55.086C129.978 55.2727 130.206 55.4173 130.477 55.52C130.748 55.6133 131.112 55.7113 131.569 55.814C132.129 55.9447 132.577 56.08 132.913 56.22C133.258 56.3507 133.552 56.5607 133.795 56.85C134.038 57.1393 134.159 57.5313 134.159 58.026C134.159 58.6327 133.93 59.132 133.473 59.524C133.025 59.9067 132.428 60.098 131.681 60.098C130.804 60.098 130.085 59.8833 129.525 59.454C128.965 59.0153 128.634 58.418 128.531 57.662H129.483C129.539 58.166 129.758 58.5767 130.141 58.894C130.524 59.2113 131.042 59.37 131.695 59.37C132.18 59.37 132.558 59.244 132.829 58.992C133.1 58.74 133.235 58.4133 133.235 58.012C133.235 57.6853 133.142 57.424 132.955 57.228C132.768 57.032 132.535 56.8873 132.255 56.794C131.984 56.6913 131.611 56.584 131.135 56.472C130.584 56.3413 130.141 56.2107 129.805 56.08C129.478 55.9493 129.198 55.7487 128.965 55.478C128.732 55.198 128.615 54.82 128.615 54.344C128.615 53.7187 128.844 53.2147 129.301 52.832C129.758 52.4493 130.379 52.258 131.163 52.258ZM139.421 59.132V60H138.511C137.773 60 137.223 59.8273 136.859 59.482C136.495 59.1273 136.313 58.5347 136.313 57.704V53.21H135.151V52.356H136.313V50.424H137.307V52.356H139.407V53.21H137.307V57.718C137.307 58.2593 137.405 58.6327 137.601 58.838C137.797 59.034 138.142 59.132 138.637 59.132H139.421ZM144.367 59.286C145.057 59.286 145.636 59.1133 146.103 58.768C146.569 58.4227 146.849 57.956 146.943 57.368H147.979C147.839 58.18 147.451 58.838 146.817 59.342C146.182 59.846 145.379 60.098 144.409 60.098C143.681 60.098 143.032 59.944 142.463 59.636C141.903 59.3187 141.464 58.866 141.147 58.278C140.829 57.6807 140.671 56.9807 140.671 56.178C140.671 55.3753 140.829 54.68 141.147 54.092C141.464 53.4947 141.903 53.042 142.463 52.734C143.032 52.4167 143.681 52.258 144.409 52.258C145.155 52.258 145.799 52.4167 146.341 52.734C146.891 53.042 147.307 53.4573 147.587 53.98C147.876 54.5027 148.021 55.072 148.021 55.688C148.021 55.9493 148.002 56.1873 147.965 56.402H141.637C141.646 57.046 141.777 57.5873 142.029 58.026C142.29 58.4553 142.626 58.7727 143.037 58.978C143.447 59.1833 143.891 59.286 144.367 59.286ZM144.409 53.056C143.914 53.056 143.461 53.1587 143.051 53.364C142.64 53.5693 142.304 53.8867 142.043 54.316C141.791 54.736 141.655 55.2633 141.637 55.898H147.041C147.078 55.2727 146.975 54.7453 146.733 54.316C146.49 53.8867 146.163 53.5693 145.753 53.364C145.342 53.1587 144.894 53.056 144.409 53.056ZM150.779 53.938C151.003 53.3873 151.362 52.9627 151.857 52.664C152.351 52.3653 152.953 52.216 153.663 52.216V53.28H153.341C152.603 53.28 151.992 53.4807 151.507 53.882C151.021 54.274 150.779 54.918 150.779 55.814V60H149.785V52.356H150.779V53.938ZM158.169 59.258C159.821 58.166 161.137 57.0693 162.117 55.968C163.106 54.8667 163.601 53.8353 163.601 52.874C163.601 52.2673 163.442 51.7773 163.125 51.404C162.808 51.0213 162.294 50.83 161.585 50.83C160.857 50.83 160.302 51.0587 159.919 51.516C159.546 51.964 159.336 52.5753 159.289 53.35H158.323C158.388 52.2767 158.72 51.4507 159.317 50.872C159.914 50.284 160.694 49.99 161.655 49.99C162.532 49.99 163.242 50.228 163.783 50.704C164.324 51.18 164.595 51.8753 164.595 52.79C164.595 53.5647 164.338 54.358 163.825 55.17C163.312 55.9727 162.672 56.7193 161.907 57.41C161.142 58.0913 160.362 58.67 159.569 59.146H164.875V59.958H158.169V59.258ZM166.336 55.016C166.336 56.612 166.584 57.8533 167.078 58.74C167.582 59.6173 168.469 60.056 169.738 60.056C170.998 60.056 171.88 59.6173 172.384 58.74C172.888 57.8533 173.14 56.612 173.14 55.016C173.14 53.4293 172.888 52.1973 172.384 51.32C171.88 50.4427 170.998 50.004 169.738 50.004C168.469 50.004 167.582 50.4427 167.078 51.32C166.584 52.1973 166.336 53.4293 166.336 55.016ZM172.16 55.016C172.16 55.884 172.095 56.6167 171.964 57.214C171.843 57.802 171.605 58.2687 171.25 58.614C170.896 58.9593 170.392 59.132 169.738 59.132C169.076 59.132 168.567 58.9593 168.212 58.614C167.858 58.2687 167.615 57.802 167.484 57.214C167.363 56.6167 167.302 55.884 167.302 55.016C167.302 54.1573 167.363 53.434 167.484 52.846C167.615 52.258 167.858 51.7913 168.212 51.446C168.567 51.1007 169.076 50.928 169.738 50.928C170.392 50.928 170.896 51.1007 171.25 51.446C171.605 51.7913 171.843 52.258 171.964 52.846C172.095 53.434 172.16 54.1573 172.16 55.016ZM174.84 55.016C174.84 56.612 175.088 57.8533 175.582 58.74C176.086 59.6173 176.973 60.056 178.242 60.056C179.502 60.056 180.384 59.6173 180.888 58.74C181.392 57.8533 181.644 56.612 181.644 55.016C181.644 53.4293 181.392 52.1973 180.888 51.32C180.384 50.4427 179.502 50.004 178.242 50.004C176.973 50.004 176.086 50.4427 175.582 51.32C175.088 52.1973 174.84 53.4293 174.84 55.016ZM180.664 55.016C180.664 55.884 180.599 56.6167 180.468 57.214C180.347 57.802 180.109 58.2687 179.754 58.614C179.4 58.9593 178.896 59.132 178.242 59.132C177.58 59.132 177.071 58.9593 176.716 58.614C176.362 58.2687 176.119 57.802 175.988 57.214C175.867 56.6167 175.806 55.884 175.806 55.016C175.806 54.1573 175.867 53.434 175.988 52.846C176.119 52.258 176.362 51.7913 176.716 51.446C177.071 51.1007 177.58 50.928 178.242 50.928C178.896 50.928 179.4 51.1007 179.754 51.446C180.109 51.7913 180.347 52.258 180.468 52.846C180.599 53.434 180.664 54.1573 180.664 55.016ZM184.954 50.004C185.524 50.004 185.99 50.186 186.354 50.55C186.728 50.914 186.914 51.3947 186.914 51.992C186.914 52.5893 186.728 53.07 186.354 53.434C185.99 53.798 185.524 53.98 184.954 53.98C184.376 53.98 183.9 53.798 183.526 53.434C183.162 53.07 182.98 52.5893 182.98 51.992C182.98 51.3947 183.162 50.914 183.526 50.55C183.9 50.186 184.376 50.004 184.954 50.004ZM190.204 50.116L184.45 60H183.47L189.21 50.116H190.204ZM183.694 51.992C183.694 52.3933 183.806 52.72 184.03 52.972C184.264 53.2147 184.567 53.336 184.94 53.336C185.314 53.336 185.617 53.2147 185.85 52.972C186.084 52.72 186.2 52.3933 186.2 51.992C186.2 51.6 186.084 51.278 185.85 51.026C185.617 50.774 185.314 50.648 184.94 50.648C184.567 50.648 184.264 50.774 184.03 51.026C183.806 51.278 183.694 51.6 183.694 51.992ZM188.734 56.136C189.304 56.136 189.77 56.318 190.134 56.682C190.508 57.046 190.694 57.5267 190.694 58.124C190.694 58.7213 190.508 59.2067 190.134 59.58C189.77 59.944 189.304 60.126 188.734 60.126C188.165 60.126 187.694 59.944 187.32 59.58C186.956 59.2067 186.774 58.7213 186.774 58.124C186.774 57.5267 186.956 57.046 187.32 56.682C187.694 56.318 188.165 56.136 188.734 56.136ZM187.488 58.124C187.488 58.5253 187.6 58.852 187.824 59.104C188.058 59.356 188.361 59.482 188.734 59.482C189.098 59.482 189.397 59.356 189.63 59.104C189.864 58.852 189.98 58.5253 189.98 58.124C189.98 57.732 189.864 57.41 189.63 57.158C189.397 56.906 189.098 56.78 188.734 56.78C188.361 56.78 188.058 56.906 187.824 57.158C187.6 57.41 187.488 57.732 187.488 58.124Z" fill="#575455"/>
<defs>
<filter id="filter0_d_1_114" x="0" y="0" width="249" height="102" filterUnits="userSpaceOnUse" color-interpolation-filters="sRGB">
<feFlood flood-opacity="0" result="BackgroundImageFix"/>
<feColorMatrix in="SourceAlpha" type="matrix" values="0 0 0 0 0 0 0 0 0 0 0 0 0 0 0 0 0 0 127 0" result="hardAlpha"/>
<feOffset dx="7" dy="9"/>
<feGaussianBlur stdDeviation="9"/>
<feComposite in2="hardAlpha" operator="out"/>
<feColorMatrix type="matrix" values="0 0 0 0 0 0 0 0 0 0 0 0 0 0 0 0 0 0 0.05 0"/>
<feBlend mode="normal" in2="BackgroundImageFix" result="effect1_dropShadow_1_114"/>
<feBlend mode="normal" in="SourceGraphic" in2="effect1_dropShadow_1_114" result="shape"/>
</filter>
<clipPath id="clip0_1_114">
<rect width="20" height="20" fill="white" transform="translate(34 32)"/>
</clipPath>
</defs>
</svg>
