<svg width="249" height="191" viewBox="0 0 249 191" fill="none" xmlns="http://www.w3.org/2000/svg">
<g filter="url(#filter0_d_1_123)">
<rect x="25" y="9" width="213" height="155" rx="16" fill="white"/>
</g>
<circle cx="58" cy="42" r="20" fill="#191046"/>
<path d="M66.3334 42H63L60.5 49.5L55.5 34.5L53 42H49.6667" stroke="white" stroke-width="2" stroke-linecap="round" stroke-linejoin="round"/>
<path d="M97.84 34.552H93.072L92.208 37H90.256L94.416 25.88H96.512L100.656 37H98.704L97.84 34.552ZM97.328 33.144L95.456 27.864L93.584 33.144H97.328ZM106.938 28.04C107.962 28.04 108.784 28.3707 109.402 29.032C110.021 29.6933 110.33 30.6373 110.33 31.864V37H108.506V32.056C108.506 31.2667 108.304 30.6587 107.898 30.232C107.493 29.7947 106.938 29.576 106.234 29.576C105.509 29.576 104.928 29.8107 104.49 30.28C104.053 30.7387 103.834 31.416 103.834 32.312V37H102.01V28.184H103.834V30.12C104.069 29.4587 104.464 28.9467 105.018 28.584C105.573 28.2213 106.213 28.04 106.938 28.04ZM115.999 28.072C116.799 28.072 117.482 28.2693 118.047 28.664C118.613 29.0587 119.013 29.5813 119.247 30.232V28.184H121.071V37H119.247V34.952C119.013 35.6027 118.613 36.1253 118.047 36.52C117.482 36.9147 116.799 37.112 115.999 37.112C115.231 37.112 114.543 36.9307 113.935 36.568C113.338 36.2053 112.869 35.6827 112.527 35C112.186 34.3173 112.015 33.512 112.015 32.584C112.015 31.6667 112.186 30.8667 112.527 30.184C112.869 29.5013 113.338 28.9787 113.935 28.616C114.543 28.2533 115.231 28.072 115.999 28.072ZM116.559 29.672C115.749 29.672 115.098 29.9333 114.607 30.456C114.127 30.968 113.887 31.6773 113.887 32.584C113.887 33.4907 114.127 34.2053 114.607 34.728C115.098 35.24 115.749 35.496 116.559 35.496C117.071 35.496 117.53 35.3787 117.935 35.144C118.341 34.8987 118.661 34.5573 118.895 34.12C119.13 33.6827 119.247 33.1707 119.247 32.584C119.247 32.008 119.13 31.5013 118.895 31.064C118.661 30.616 118.341 30.2747 117.935 30.04C117.53 29.7947 117.071 29.672 116.559 29.672ZM125.084 25.16V37H123.26V25.16H125.084ZM128.332 28.184L130.972 34.664L133.42 28.184H135.452L130.124 41.192H128.092L129.996 36.792L126.284 28.184H128.332ZM141.083 35.416V37H139.963C139.024 37 138.31 36.776 137.819 36.328C137.339 35.8693 137.099 35.112 137.099 34.056V29.736H135.835V28.184H137.099V25.992H138.939V28.184H141.067V29.736H138.939V34.088C138.939 34.5893 139.03 34.936 139.211 35.128C139.403 35.32 139.734 35.416 140.203 35.416H141.083ZM142.536 25.624C142.536 25.3147 142.642 25.0587 142.856 24.856C143.069 24.6533 143.352 24.552 143.704 24.552C144.056 24.552 144.338 24.6533 144.552 24.856C144.776 25.0587 144.888 25.3147 144.888 25.624C144.888 25.9333 144.776 26.184 144.552 26.376C144.338 26.568 144.056 26.664 143.704 26.664C143.352 26.664 143.069 26.568 142.856 26.376C142.642 26.184 142.536 25.9333 142.536 25.624ZM144.616 28.184V37H142.792V28.184H144.616ZM150.743 28.072C151.884 28.072 152.828 28.376 153.575 28.984C154.321 29.5813 154.785 30.3973 154.967 31.432H153.031C152.924 30.8773 152.663 30.4453 152.247 30.136C151.841 29.816 151.329 29.656 150.711 29.656C150.007 29.656 149.42 29.9067 148.951 30.408C148.481 30.8987 148.247 31.624 148.247 32.584C148.247 33.544 148.481 34.2747 148.951 34.776C149.42 35.2773 150.007 35.528 150.711 35.528C151.329 35.528 151.841 35.368 152.247 35.048C152.663 34.728 152.924 34.2907 153.031 33.736H154.967C154.785 34.7707 154.321 35.592 153.575 36.2C152.828 36.808 151.884 37.112 150.743 37.112C149.889 37.112 149.132 36.9307 148.471 36.568C147.82 36.2053 147.308 35.6827 146.935 35C146.561 34.3173 146.375 33.512 146.375 32.584C146.375 31.6667 146.561 30.8667 146.935 30.184C147.308 29.5013 147.82 28.9787 148.471 28.616C149.132 28.2533 149.889 28.072 150.743 28.072ZM159.625 28.072C160.66 28.072 161.486 28.3387 162.105 28.872C162.734 29.3947 163.118 30.0987 163.257 30.984H161.529C161.454 30.504 161.246 30.12 160.905 29.832C160.574 29.5333 160.132 29.384 159.577 29.384C159.118 29.384 158.761 29.496 158.505 29.72C158.26 29.9333 158.137 30.2267 158.137 30.6C158.137 30.8773 158.228 31.1013 158.409 31.272C158.59 31.4427 158.814 31.576 159.081 31.672C159.358 31.768 159.748 31.8747 160.249 31.992C160.91 32.1413 161.444 32.296 161.849 32.456C162.265 32.616 162.617 32.872 162.905 33.224C163.204 33.5653 163.353 34.0347 163.353 34.632C163.353 35.368 163.07 35.9653 162.505 36.424C161.95 36.8827 161.198 37.112 160.249 37.112C159.15 37.112 158.26 36.856 157.577 36.344C156.905 35.832 156.5 35.1173 156.361 34.2H158.137C158.19 34.68 158.404 35.0693 158.777 35.368C159.15 35.6667 159.641 35.816 160.249 35.816C160.686 35.816 161.028 35.704 161.273 35.48C161.529 35.2453 161.657 34.952 161.657 34.6C161.657 34.2907 161.561 34.0453 161.369 33.864C161.177 33.6827 160.937 33.544 160.649 33.448C160.361 33.3413 159.966 33.2347 159.465 33.128C158.825 32.9787 158.302 32.8293 157.897 32.68C157.502 32.5307 157.161 32.2907 156.873 31.96C156.596 31.6187 156.457 31.16 156.457 30.584C156.457 29.8373 156.734 29.2347 157.289 28.776C157.854 28.3067 158.633 28.072 159.625 28.072Z" fill="#070F18"/>
<path d="M96.356 60L93.654 55.884H92.058V60H91.064V50.13H94.088C95.1987 50.13 96.0247 50.3913 96.566 50.914C97.1167 51.4367 97.392 52.1413 97.392 53.028C97.392 53.8493 97.1587 54.5027 96.692 54.988C96.2347 55.4733 95.5673 55.7627 94.69 55.856L97.476 60H96.356ZM92.058 55.142H94.018C95.6047 55.142 96.398 54.456 96.398 53.084C96.398 51.684 95.6047 50.984 94.018 50.984H92.058V55.142ZM102.367 59.286C103.057 59.286 103.636 59.1133 104.103 58.768C104.569 58.4227 104.849 57.956 104.943 57.368H105.979C105.839 58.18 105.451 58.838 104.817 59.342C104.182 59.846 103.379 60.098 102.409 60.098C101.681 60.098 101.032 59.944 100.463 59.636C99.9027 59.3187 99.464 58.866 99.1467 58.278C98.8294 57.6807 98.6707 56.9807 98.6707 56.178C98.6707 55.3753 98.8294 54.68 99.1467 54.092C99.464 53.4947 99.9027 53.042 100.463 52.734C101.032 52.4167 101.681 52.258 102.409 52.258C103.155 52.258 103.799 52.4167 104.341 52.734C104.891 53.042 105.307 53.4573 105.587 53.98C105.876 54.5027 106.021 55.072 106.021 55.688C106.021 55.9493 106.002 56.1873 105.965 56.402H99.6367C99.646 57.046 99.7767 57.5873 100.029 58.026C100.29 58.4553 100.626 58.7727 101.037 58.978C101.447 59.1833 101.891 59.286 102.367 59.286ZM102.409 53.056C101.914 53.056 101.461 53.1587 101.051 53.364C100.64 53.5693 100.304 53.8867 100.043 54.316C99.7907 54.736 99.6554 55.2633 99.6367 55.898H105.041C105.078 55.2727 104.975 54.7453 104.733 54.316C104.49 53.8867 104.163 53.5693 103.753 53.364C103.342 53.1587 102.894 53.056 102.409 53.056ZM111.005 52.258C111.779 52.258 112.437 52.4587 112.979 52.86C113.529 53.2613 113.907 53.7933 114.113 54.456V52.356H115.079V60H114.113V57.9C113.907 58.5627 113.529 59.0947 112.979 59.496C112.437 59.8973 111.779 60.098 111.005 60.098C110.314 60.098 109.693 59.9393 109.143 59.622C108.601 59.3047 108.177 58.852 107.869 58.264C107.57 57.6667 107.421 56.9713 107.421 56.178C107.421 55.3753 107.57 54.68 107.869 54.092C108.177 53.4947 108.601 53.042 109.143 52.734C109.684 52.4167 110.305 52.258 111.005 52.258ZM111.257 53.126C110.398 53.126 109.707 53.4013 109.185 53.952C108.671 54.4933 108.415 55.2353 108.415 56.178C108.415 57.1207 108.671 57.8673 109.185 58.418C109.707 58.9593 110.398 59.23 111.257 59.23C111.798 59.23 112.283 59.104 112.713 58.852C113.151 58.6 113.492 58.2453 113.735 57.788C113.987 57.3213 114.113 56.7847 114.113 56.178C114.113 55.5713 113.987 55.0393 113.735 54.582C113.492 54.1153 113.151 53.756 112.713 53.504C112.283 53.252 111.798 53.126 111.257 53.126ZM118.199 49.64V60H117.205V49.64H118.199ZM127.431 59.132V60H126.521C125.783 60 125.233 59.8273 124.869 59.482C124.505 59.1273 124.323 58.5347 124.323 57.704V53.21H123.161V52.356H124.323V50.424H125.317V52.356H127.417V53.21H125.317V57.718C125.317 58.2593 125.415 58.6327 125.611 58.838C125.807 59.034 126.152 59.132 126.647 59.132H127.431ZM128.82 50.088C128.82 49.8827 128.886 49.7193 129.016 49.598C129.156 49.4767 129.334 49.416 129.548 49.416C129.763 49.416 129.936 49.4767 130.066 49.598C130.197 49.7193 130.262 49.8827 130.262 50.088C130.262 50.284 130.197 50.4427 130.066 50.564C129.936 50.6853 129.763 50.746 129.548 50.746C129.334 50.746 129.156 50.6853 129.016 50.564C128.886 50.4427 128.82 50.284 128.82 50.088ZM130.038 52.356V60H129.044V52.356H130.038ZM141.444 52.216C142.321 52.216 143.03 52.5007 143.572 53.07C144.122 53.63 144.398 54.456 144.398 55.548V60H143.418V55.618C143.418 54.7967 143.217 54.1667 142.816 53.728C142.424 53.2893 141.882 53.07 141.192 53.07C140.454 53.07 139.866 53.3127 139.428 53.798C138.989 54.2833 138.77 54.9973 138.77 55.94V60H137.804V55.618C137.804 54.7967 137.603 54.1667 137.202 53.728C136.81 53.2893 136.268 53.07 135.578 53.07C134.84 53.07 134.252 53.3127 133.814 53.798C133.375 54.2833 133.156 54.9973 133.156 55.94V60H132.162V52.356H133.156V54.176C133.342 53.532 133.678 53.0467 134.164 52.72C134.658 52.384 135.228 52.216 135.872 52.216C136.544 52.216 137.122 52.3933 137.608 52.748C138.093 53.1027 138.429 53.6253 138.616 54.316C138.821 53.6347 139.18 53.1167 139.694 52.762C140.207 52.398 140.79 52.216 141.444 52.216ZM149.794 59.286C150.485 59.286 151.064 59.1133 151.53 58.768C151.997 58.4227 152.277 57.956 152.37 57.368H153.406C153.266 58.18 152.879 58.838 152.244 59.342C151.61 59.846 150.807 60.098 149.836 60.098C149.108 60.098 148.46 59.944 147.89 59.636C147.33 59.3187 146.892 58.866 146.574 58.278C146.257 57.6807 146.098 56.9807 146.098 56.178C146.098 55.3753 146.257 54.68 146.574 54.092C146.892 53.4947 147.33 53.042 147.89 52.734C148.46 52.4167 149.108 52.258 149.836 52.258C150.583 52.258 151.227 52.4167 151.768 52.734C152.319 53.042 152.734 53.4573 153.014 53.98C153.304 54.5027 153.448 55.072 153.448 55.688C153.448 55.9493 153.43 56.1873 153.392 56.402H147.064C147.074 57.046 147.204 57.5873 147.456 58.026C147.718 58.4553 148.054 58.7727 148.464 58.978C148.875 59.1833 149.318 59.286 149.794 59.286ZM149.836 53.056C149.342 53.056 148.889 53.1587 148.478 53.364C148.068 53.5693 147.732 53.8867 147.47 54.316C147.218 54.736 147.083 55.2633 147.064 55.898H152.468C152.506 55.2727 152.403 54.7453 152.16 54.316C151.918 53.8867 151.591 53.5693 151.18 53.364C150.77 53.1587 150.322 53.056 149.836 53.056ZM159.843 53.938C160.067 53.3873 160.426 52.9627 160.921 52.664C161.416 52.3653 162.018 52.216 162.727 52.216V53.28H162.405C161.668 53.28 161.056 53.4807 160.571 53.882C160.086 54.274 159.843 54.918 159.843 55.814V60H158.849V52.356H159.843V53.938ZM167.363 59.286C168.053 59.286 168.632 59.1133 169.099 58.768C169.565 58.4227 169.845 57.956 169.939 57.368H170.975C170.835 58.18 170.447 58.838 169.813 59.342C169.178 59.846 168.375 60.098 167.405 60.098C166.677 60.098 166.028 59.944 165.459 59.636C164.899 59.3187 164.46 58.866 164.143 58.278C163.825 57.6807 163.667 56.9807 163.667 56.178C163.667 55.3753 163.825 54.68 164.143 54.092C164.46 53.4947 164.899 53.042 165.459 52.734C166.028 52.4167 166.677 52.258 167.405 52.258C168.151 52.258 168.795 52.4167 169.337 52.734C169.887 53.042 170.303 53.4573 170.583 53.98C170.872 54.5027 171.017 55.072 171.017 55.688C171.017 55.9493 170.998 56.1873 170.961 56.402H164.633C164.642 57.046 164.773 57.5873 165.025 58.026C165.286 58.4553 165.622 58.7727 166.033 58.978C166.443 59.1833 166.887 59.286 167.363 59.286ZM167.405 53.056C166.91 53.056 166.457 53.1587 166.047 53.364C165.636 53.5693 165.3 53.8867 165.039 54.316C164.787 54.736 164.651 55.2633 164.633 55.898H170.037C170.074 55.2727 169.971 54.7453 169.729 54.316C169.486 53.8867 169.159 53.5693 168.749 53.364C168.338 53.1587 167.89 53.056 167.405 53.056ZM176.869 52.258C177.569 52.258 178.185 52.4167 178.717 52.734C179.258 53.042 179.678 53.4947 179.977 54.092C180.285 54.68 180.439 55.3753 180.439 56.178C180.439 56.9713 180.285 57.6667 179.977 58.264C179.678 58.852 179.258 59.3047 178.717 59.622C178.175 59.9393 177.559 60.098 176.869 60.098C176.085 60.098 175.422 59.8973 174.881 59.496C174.339 59.0947 173.966 58.5627 173.761 57.9V63.612H172.781V52.356H173.761V54.456C173.966 53.7933 174.339 53.2613 174.881 52.86C175.422 52.4587 176.085 52.258 176.869 52.258ZM176.603 53.126C176.061 53.126 175.571 53.252 175.133 53.504C174.703 53.756 174.367 54.1153 174.125 54.582C173.882 55.0393 173.761 55.5713 173.761 56.178C173.761 56.7847 173.882 57.3213 174.125 57.788C174.367 58.2453 174.703 58.6 175.133 58.852C175.571 59.104 176.061 59.23 176.603 59.23C177.471 59.23 178.161 58.9593 178.675 58.418C179.188 57.8673 179.445 57.1207 179.445 56.178C179.445 55.2353 179.188 54.4933 178.675 53.952C178.161 53.4013 177.471 53.126 176.603 53.126ZM185.659 52.258C186.387 52.258 187.035 52.4167 187.605 52.734C188.183 53.042 188.636 53.4947 188.963 54.092C189.289 54.68 189.453 55.3753 189.453 56.178C189.453 56.9807 189.289 57.676 188.963 58.264C188.636 58.852 188.183 59.3047 187.605 59.622C187.035 59.9393 186.387 60.098 185.659 60.098C184.931 60.098 184.277 59.9393 183.699 59.622C183.12 59.3047 182.663 58.852 182.327 58.264C182 57.6667 181.837 56.9713 181.837 56.178C181.837 55.3753 182 54.68 182.327 54.092C182.663 53.4947 183.12 53.042 183.699 52.734C184.277 52.4167 184.931 52.258 185.659 52.258ZM185.659 53.112C185.155 53.112 184.688 53.224 184.259 53.448C183.829 53.672 183.484 54.0173 183.223 54.484C182.961 54.9413 182.831 55.506 182.831 56.178C182.831 56.85 182.961 57.4147 183.223 57.872C183.484 58.3293 183.829 58.67 184.259 58.894C184.688 59.118 185.155 59.23 185.659 59.23C186.153 59.23 186.611 59.118 187.031 58.894C187.46 58.67 187.805 58.3293 188.067 57.872C188.328 57.4147 188.459 56.85 188.459 56.178C188.459 55.506 188.328 54.9413 188.067 54.484C187.805 54.0173 187.46 53.672 187.031 53.448C186.611 53.224 186.153 53.112 185.659 53.112ZM192.204 53.938C192.428 53.3873 192.788 52.9627 193.282 52.664C193.777 52.3653 194.379 52.216 195.088 52.216V53.28H194.766C194.029 53.28 193.418 53.4807 192.932 53.882C192.447 54.274 192.204 54.918 192.204 55.814V60H191.21V52.356H192.204V53.938ZM199.864 59.132V60H198.954C198.217 60 197.666 59.8273 197.302 59.482C196.938 59.1273 196.756 58.5347 196.756 57.704V53.21H195.594V52.356H196.756V50.424H197.75V52.356H199.85V53.21H197.75V57.718C197.75 58.2593 197.848 58.6327 198.044 58.838C198.24 59.034 198.585 59.132 199.08 59.132H199.864Z" fill="#575455"/>
<rect x="38" y="107" width="10" height="37" rx="5" fill="#EAECF2"/>
<rect x="57" y="122" width="10" height="22" rx="5" fill="#EAECF2"/>
<rect x="76" y="113" width="10" height="31" rx="5" fill="#EAECF2"/>
<rect x="95" y="128" width="10" height="16" rx="5" fill="#EAECF2"/>
<rect x="114" y="120" width="10" height="24" rx="5" fill="#EAECF2"/>
<rect x="133" y="95" width="10" height="49" rx="5" fill="#EAECF2"/>
<rect x="152" y="105" width="10" height="39" rx="5" fill="#EAECF2"/>
<rect x="171" y="115" width="10" height="29" rx="5" fill="#F75C4E"/>
<rect x="190" y="95" width="10" height="49" rx="5" fill="#F75C4E"/>
<rect x="209" y="81" width="10" height="63" rx="5" fill="#1F7CFF"/>
<defs>
<filter id="filter0_d_1_123" x="0" y="0" width="249" height="191" filterUnits="userSpaceOnUse" color-interpolation-filters="sRGB">
<feFlood flood-opacity="0" result="BackgroundImageFix"/>
<feColorMatrix in="SourceAlpha" type="matrix" values="0 0 0 0 0 0 0 0 0 0 0 0 0 0 0 0 0 0 127 0" result="hardAlpha"/>
<feOffset dx="-7" dy="9"/>
<feGaussianBlur stdDeviation="9"/>
<feComposite in2="hardAlpha" operator="out"/>
<feColorMatrix type="matrix" values="0 0 0 0 0 0 0 0 0 0 0 0 0 0 0 0 0 0 0.05 0"/>
<feBlend mode="normal" in2="BackgroundImageFix" result="effect1_dropShadow_1_123"/>
<feBlend mode="normal" in="SourceGraphic" in2="effect1_dropShadow_1_123" result="shape"/>
</filter>
</defs>
</svg>
